<?xml version="1.0" encoding="utf-8"?>
<!-- Generator: Adobe Illustrator 26.2.1, SVG Export Plug-In . SVG Version: 6.00 Build 0)  -->
<svg version="1.1" id="Capa_1" xmlns="http://www.w3.org/2000/svg" xmlns:xlink="http://www.w3.org/1999/xlink" x="0px" y="0px"
	 viewBox="0 0 58 58" style="enable-background:new 0 0 58 58;" xml:space="preserve">
<style type="text/css">
	.st0{fill:#4BB8DD;}
	.st1{fill:#AFB6BB;}
	.st2{fill:#283238;stroke:#F3CC6D;stroke-width:2;stroke-linecap:round;stroke-miterlimit:10;}
	.st3{fill:#38454F;}
</style>
<path class="st0" d="M38.5,8.3l1,1.7h-24l1-1.7c0.7-1.3,1.1-2.7,1.1-4.1l0,0c0-2.3,2.2-4.2,4.8-4.2h10.2c2.7,0,4.8,1.9,4.8,4.2l0,0
	C37.4,5.6,37.8,7,38.5,8.3z"/>
<path class="st0" d="M16.5,49.7l-1-1.7h24l-1,1.7c-0.7,1.3-1.1,2.7-1.1,4.1l0,0c0,2.3-2.2,4.2-4.8,4.2H22.4c-2.7,0-4.8-1.9-4.8-4.2
	l0,0C17.6,52.4,17.2,51,16.5,49.7z"/>
<path class="st1" d="M46,40h-2.5v-8H46c0.8,0,1.5,0.7,1.5,1.5v5C47.5,39.3,46.8,40,46,40z"/>
<path class="st1" d="M47,27h-2.5v-8H47c0.8,0,1.5,0.7,1.5,1.5v5C48.5,26.3,47.8,27,47,27z"/>
<path class="st2" d="M40.2,48H14.8c-2.4,0-4.3-1.9-4.3-4.3V14.3c0-2.4,1.9-4.3,4.3-4.3h25.4c2.4,0,4.3,1.9,4.3,4.3v29.4
	C44.5,46.1,42.6,48,40.2,48z"/>
<g>
	<path class="st3" d="M15.5,20c0.3,0,0.5-0.1,0.7-0.3l4-4c0.4-0.4,0.4-1,0-1.4s-1-0.4-1.4,0l-4,4c-0.4,0.4-0.4,1,0,1.4
		C15,19.9,15.2,20,15.5,20z"/>
	<path class="st3" d="M15.5,25c0.3,0,0.5-0.1,0.7-0.3l2-2c0.4-0.4,0.4-1,0-1.4s-1-0.4-1.4,0l-2,2c-0.4,0.4-0.4,1,0,1.4
		C15,24.9,15.2,25,15.5,25z"/>
	<path class="st3" d="M18.8,19.3c-0.2,0.2-0.3,0.4-0.3,0.7c0,0.3,0.1,0.5,0.3,0.7c0.2,0.2,0.4,0.3,0.7,0.3c0.3,0,0.5-0.1,0.7-0.3
		c0.2-0.2,0.3-0.5,0.3-0.7s-0.1-0.5-0.3-0.7C19.8,18.9,19.2,18.9,18.8,19.3z"/>
	<path class="st3" d="M20.8,18.7c0.2,0.2,0.5,0.3,0.7,0.3s0.5-0.1,0.7-0.3l3-3c0.4-0.4,0.4-1,0-1.4s-1-0.4-1.4,0l-3,3
		C20.4,17.7,20.4,18.3,20.8,18.7z"/>
	<path class="st3" d="M23.8,19.3l-9,9c-0.4,0.4-0.4,1,0,1.4c0.2,0.2,0.5,0.3,0.7,0.3s0.5-0.1,0.7-0.3l9-9c0.4-0.4,0.4-1,0-1.4
		S24.2,18.9,23.8,19.3z"/>
	<path class="st3" d="M25.8,17.3c-0.2,0.2-0.3,0.4-0.3,0.7c0,0.3,0.1,0.5,0.3,0.7c0.2,0.2,0.4,0.3,0.7,0.3s0.5-0.1,0.7-0.3
		c0.2-0.2,0.3-0.5,0.3-0.7s-0.1-0.5-0.3-0.7C26.8,16.9,26.2,16.9,25.8,17.3z"/>
	<path class="st3" d="M30.2,14.3c-0.4-0.4-1-0.4-1.4,0l-1,1c-0.4,0.4-0.4,1,0,1.4c0.2,0.2,0.5,0.3,0.7,0.3s0.5-0.1,0.7-0.3l1-1
		C30.6,15.3,30.6,14.7,30.2,14.3z"/>
</g>
</svg>
